# Blender 3.5.1
# www.blender.org
mtllib grass.mtl
o Cube
v -154.000000 -146.000000 -1.600000
v -8.000000 -0.050000 -1.600000
v -154.000000 154.000000 -1.600000
v -8.000000 8.050000 -1.600000
v -154.000000 -146.000000 -1.700000
v -8.000000 -0.050000 -1.700000
v -154.000000 154.000000 -1.700000
v -8.000000 8.050000 -1.700000
v 146.000000 -146.000000 -1.600000
v 0.000000 -0.050000 -1.600000
v 146.000000 154.000000 -1.600000
v 0.000000 8.050000 -1.600000
v 146.000000 -146.000000 -1.700000
v 0.000000 -0.050000 -1.700000
v 146.000000 154.000000 -1.700000
v 0.000000 8.050000 -1.700000
v -8.000000 0.000000 -1.600000
v 0.000000 0.000000 -1.700000
v -8.000000 8.000000 -1.700000
v 0.000000 8.000000 -1.600000
vn -1.0000 -0.0000 -0.0000
vn -0.0000 -0.0000 -1.0000
vn 1.0000 -0.0000 -0.0000
vn -0.0000 -0.0000 1.0000
vn -0.0000 -1.0000 -0.0000
vn -0.0000 1.0000 -0.0000
vt 0.375000 0.000000
vt 0.125000 0.750000
vt 0.375000 1.000000
vt 0.125000 0.750000
vt 0.496625 0.878333
vt 0.375000 0.000000
vt 0.625000 0.000000
vt 0.875000 0.750000
vt 0.625000 1.000000
vt 0.875000 0.750000
vt 0.503375 0.878333
vt 0.625000 0.000000
vt 0.125000 0.500000
vt 0.375000 0.250000
vt 0.125000 0.500000
vt 0.496625 0.371667
vt 0.375000 0.250000
vt 0.875000 0.500000
vt 0.625000 0.250000
vt 0.875000 0.500000
vt 0.503375 0.371667
vt 0.625000 0.250000
vt 0.375000 0.750000
vt 0.496625 0.871667
vt 0.375000 0.750000
vt 0.625000 0.750000
vt 0.625000 0.750000
vt 0.503375 0.871667
vt 0.375000 0.500000
vt 0.375000 0.500000
vt 0.496625 0.378333
vt 0.625000 0.500000
vt 0.503375 0.378333
vt 0.625000 0.500000
vt 0.496667 0.878333
vt 0.376543 0.000000
vt 0.496667 0.378333
vt 0.376543 0.500000
vt 0.503333 0.371667
vt 0.623457 0.250000
vt 0.503333 0.871667
vt 0.623457 0.750000
s 0
f 3/7/1 5/14/1 1/1/1
f 13/29/2 5/14/2 6/16/2
f 15/32/3 9/23/3 13/29/3
f 1/3/4 9/23/4 10/24/4
f 13/29/5 1/2/5 5/13/5
f 7/18/6 11/26/6 15/32/6
f 3/7/1 7/19/1 5/14/1
f 7/19/2 15/32/2 16/33/2
f 15/32/3 11/26/3 9/23/3
f 11/26/4 3/9/4 12/28/4
f 13/29/5 9/23/5 1/2/5
f 7/18/6 3/8/6 11/26/6
f 17/36/3 6/17/3 4/12/3
f 10/25/1 18/38/1 14/30/1
f 6/15/6 2/4/6 14/30/6
f 8/20/5 16/34/5 12/27/5
f 19/40/3 4/12/3 6/17/3
f 16/34/1 20/42/1 12/27/1
f 2/4/6 10/25/6 14/30/6
f 8/20/5 12/27/5 4/10/5
f 14/31/2 18/37/2 13/29/2
f 5/14/2 7/19/2 19/39/2
f 6/16/2 14/31/2 13/29/2
f 5/14/2 19/39/2 6/16/2
f 2/5/4 17/35/4 1/3/4
f 9/23/4 11/26/4 20/41/4
f 10/24/4 2/5/4 1/3/4
f 9/23/4 20/41/4 10/24/4
f 8/21/2 19/39/2 7/19/2
f 15/32/2 13/29/2 18/37/2
f 16/33/2 8/21/2 7/19/2
f 15/32/2 18/37/2 16/33/2
f 3/9/4 1/3/4 17/35/4
f 3/9/4 17/35/4 4/11/4
f 12/28/4 20/41/4 11/26/4
f 3/9/4 4/11/4 12/28/4
f 17/36/3 2/6/3 6/17/3
f 10/25/1 16/34/1 18/38/1
f 19/40/3 8/22/3 4/12/3
f 16/34/1 10/25/1 20/42/1
