# Blender 3.5.1
# www.blender.org
mtllib roof.mtl
o Cube
v -8.500000 -0.549870 1.179914
v -4.000000 3.999477 4.179914
v -8.500000 8.550131 1.180130
v 0.500000 -0.549870 1.179914
v 0.500000 8.550131 1.180130
vn -0.5547 -0.0000 0.8321
vn -0.0000 0.5504 0.8349
vn 0.5547 -0.0000 0.8321
vn -0.0000 -0.5505 0.8348
vt 0.375000 0.000000
vt 0.375000 1.000000
vt 0.625000 0.250000
vt 0.625000 0.500000
vt 0.625000 0.750000
vt 0.625000 1.000000
vt 0.375000 0.250000
vt 0.375000 0.750000
vt 0.375000 0.500000
s 0
f 1/1/1 2/3/1 3/7/1
f 3/7/2 2/4/2 5/9/2
f 5/9/3 2/5/3 4/8/3
f 4/8/4 2/6/4 1/2/4
