# Blender 3.5.1
# www.blender.org
mtllib walls.mtl
o Cube.003
v 0.000000 7.950000 -1.500000
v 0.000000 7.950000 1.500000
v -8.000000 7.950000 -1.500000
v -8.000000 7.950000 1.500000
v 0.000000 8.050000 -1.500000
v 0.000000 8.050000 1.500000
v -8.000000 8.050000 -1.500000
v -8.000000 8.050000 1.500000
v -0.100000 0.050002 -1.500000
v -0.100000 0.050002 1.500000
v -0.100000 8.050001 -1.500000
v -0.100000 8.050002 1.500000
v -0.000000 0.050002 -1.500000
v -0.000000 0.050002 1.500000
v 0.000000 8.050001 -1.500000
v 0.000000 8.050002 1.500000
v -0.000000 -0.049999 -1.500000
v -0.000000 -0.049999 1.500000
v -8.000000 -0.049999 -1.499999
v -8.000000 -0.049999 1.500001
v -0.000000 0.050001 -1.500000
v -0.000000 0.050001 1.500000
v -8.000000 0.050001 -1.499999
v -8.000000 0.050001 1.500001
v -0.850000 -0.049999 -1.500000
v -0.850000 -0.049999 -0.249999
v -0.850000 -0.049999 0.500001
v -2.150000 -0.049999 0.500001
v -2.150000 -0.049999 -0.749999
v -2.150001 -0.049999 -1.500000
v -1.337500 -0.049999 0.500001
v -0.850000 0.050001 -1.181250
v -0.850000 0.050001 -1.500000
v -2.150000 0.050001 -0.693749
v -2.150000 0.050001 -0.849999
v -2.150001 0.050001 -1.500000
v -0.850000 0.050001 -0.149999
v -2.150000 0.050001 0.500001
v -1.272500 0.050001 0.500001
v -0.850000 0.050001 0.500001
v -2.150001 -0.023124 -1.500000
v -0.850000 -0.039374 -1.500000
v -4.000000 -0.049999 -0.499999
v -4.000000 -0.049999 0.000001
v -5.250000 -0.049999 -0.499999
v -5.333333 -0.049999 -0.499999
v -5.350000 0.050001 -0.499999
v -4.000000 0.050001 0.000001
v -4.000000 0.050001 -0.499999
v -6.000000 0.050001 -0.174999
v -6.000000 0.050001 -0.499999
v -6.000000 0.050001 0.500001
v -5.333333 0.050001 0.500001
v -4.000000 -0.049999 0.500001
v -4.000000 -0.049999 0.125001
v -4.750000 -0.049999 0.500001
v -6.000000 -0.049999 -0.499999
v -6.000000 -0.049999 -0.124999
v -6.000000 -0.049999 0.500001
v -4.000000 0.050001 0.175001
v -4.650000 0.050001 0.500001
v -4.000000 0.050001 0.500001
v -7.999998 0.000001 -1.499999
v -7.999998 0.000001 1.500001
v -7.999998 8.000002 -1.500000
v -7.999998 8.000002 1.500000
v -7.899999 0.000001 -1.499999
v -7.899999 0.000001 1.500001
v -7.899998 8.000002 -1.500000
v -7.899998 8.000002 1.500000
v -7.999998 5.047374 -1.500000
v -7.999998 5.047374 -1.003408
v -7.999998 6.347391 -0.880271
v -7.999998 6.347391 -1.500000
v -7.999998 5.047374 -0.392764
v -7.899998 5.047897 -1.500000
v -7.899998 5.047897 -0.903406
v -7.899998 5.047897 0.392961
v -7.899998 6.347915 -0.103400
v -7.899998 6.347915 -1.500000
v -7.899998 6.347915 0.500000
v -7.899998 5.957029 0.500000
v -7.899998 5.333335 0.500000
v -7.999998 5.047374 0.500000
v -7.999998 6.347391 -0.003399
v -7.999998 6.347391 0.500000
v -7.999998 6.021288 0.500000
v -7.899998 5.047897 0.500000
v -7.936902 5.047704 -1.500000
v -7.920650 6.347807 -1.500000
vn -0.0000 -1.0000 -0.0000
vn -1.0000 -0.0000 -0.0000
vn -0.0000 1.0000 -0.0000
vn 1.0000 -0.0000 -0.0000
vn -0.0000 -0.0000 -1.0000
vn -0.0000 -0.0000 1.0000
vn -0.0052 1.0000 -0.0000
vn 0.0052 -1.0000 -0.0000
vt 0.375000 0.000000
vt 0.375000 1.000000
vt 0.125000 0.750000
vt 0.625000 0.000000
vt 0.625000 1.000000
vt 0.875000 0.750000
vt 0.125000 0.500000
vt 0.375000 0.250000
vt 0.625000 0.250000
vt 0.875000 0.500000
vt 0.375000 0.750000
vt 0.625000 0.750000
vt 0.375000 0.500000
vt 0.625000 0.500000
vt 0.375000 0.000000
vt 0.375000 1.000000
vt 0.125000 0.750000
vt 0.625000 0.000000
vt 0.625000 1.000000
vt 0.875000 0.750000
vt 0.125000 0.500000
vt 0.375000 0.250000
vt 0.625000 0.250000
vt 0.875000 0.500000
vt 0.375000 0.750000
vt 0.625000 0.750000
vt 0.375000 0.500000
vt 0.625000 0.500000
vt 0.375000 1.000000
vt 0.125000 0.750000
vt 0.375000 0.000000
vt 0.625000 1.000000
vt 0.875000 0.750000
vt 0.625000 0.000000
vt 0.125000 0.500000
vt 0.375000 0.250000
vt 0.875000 0.500000
vt 0.625000 0.250000
vt 0.375000 0.750000
vt 0.625000 0.750000
vt 0.375000 0.500000
vt 0.625000 0.500000
vt 0.125000 0.723438
vt 0.375000 0.026562
vt 0.375000 0.843750
vt 0.479167 0.026562
vt 0.531250 0.843750
vt 0.541667 0.026562
vt 0.625000 0.843750
vt 0.718750 0.750000
vt 0.541667 0.067188
vt 0.718750 0.500000
vt 0.625000 0.406250
vt 0.437500 0.067188
vt 0.468750 0.406250
vt 0.125000 0.682812
vt 0.375000 0.406250
vt 0.375000 0.067188
vt 0.541667 0.041797
vt 0.718750 0.656250
vt 0.401563 0.723438
vt 0.414844 0.831250
vt 0.375000 0.723438
vt 0.375000 0.831250
vt 0.442187 0.682812
vt 0.475781 0.418750
vt 0.429167 0.682813
vt 0.456250 0.418750
vt 0.375000 0.682812
vt 0.375000 0.418750
vt 0.487500 0.723437
vt 0.543750 0.831250
vt 0.541667 0.682813
vt 0.706250 0.500000
vt 0.625000 0.418750
vt 0.541667 0.710234
vt 0.706250 0.668750
vt 0.625000 0.831250
vt 0.706250 0.750000
vt 0.541667 0.723437
vt 0.192188 0.682812
vt 0.375000 0.409609
vt 0.151562 0.723438
vt 0.375000 0.842422
vt 0.458333 0.125000
vt 0.281250 0.750000
vt 0.375000 0.843750
vt 0.500000 0.125000
vt 0.500000 0.843750
vt 0.458333 0.164062
vt 0.281250 0.593750
vt 0.458333 0.166667
vt 0.281250 0.583333
vt 0.458333 0.582812
vt 0.293750 0.581250
vt 0.500000 0.625000
vt 0.500000 0.831250
vt 0.458333 0.625000
vt 0.293750 0.750000
vt 0.375000 0.831250
vt 0.485417 0.562500
vt 0.456250 0.418750
vt 0.375000 0.418750
vt 0.458333 0.562500
vt 0.293750 0.500000
vt 0.706250 0.500000
vt 0.541667 0.562500
vt 0.625000 0.418750
vt 0.541667 0.583333
vt 0.706250 0.583333
vt 0.541667 0.125000
vt 0.718750 0.750000
vt 0.625000 0.843750
vt 0.510417 0.125000
vt 0.531250 0.843750
vt 0.541667 0.148438
vt 0.718750 0.656250
vt 0.458333 0.187500
vt 0.281250 0.500000
vt 0.375000 0.406250
vt 0.489583 0.187500
vt 0.468750 0.406250
vt 0.541667 0.187500
vt 0.625000 0.406250
vt 0.718750 0.500000
vt 0.514583 0.625000
vt 0.543750 0.831250
vt 0.541667 0.604688
vt 0.706250 0.668750
vt 0.625000 0.831250
vt 0.706250 0.750000
vt 0.541667 0.625000
vt 0.375000 1.000000
vt 0.125000 0.750000
vt 0.375000 0.000000
vt 0.625000 1.000000
vt 0.875000 0.750000
vt 0.625000 0.000000
vt 0.125000 0.500000
vt 0.375000 0.250000
vt 0.875000 0.500000
vt 0.625000 0.250000
vt 0.375000 0.750000
vt 0.625000 0.750000
vt 0.375000 0.500000
vt 0.625000 0.500000
vt 0.125000 0.592270
vt 0.375000 0.157730
vt 0.375000 0.437926
vt 0.416383 0.157730
vt 0.437074 0.437926
vt 0.426644 0.198356
vt 0.452466 0.812925
vt 0.375000 0.198356
vt 0.125000 0.551644
vt 0.375000 0.812925
vt 0.467270 0.157730
vt 0.513404 0.437926
vt 0.375000 0.425426
vt 0.375000 0.592253
vt 0.424716 0.592253
vt 0.449574 0.425426
vt 0.532747 0.592253
vt 0.611620 0.425426
vt 0.491383 0.551628
vt 0.549575 0.825425
vt 0.375000 0.551628
vt 0.375000 0.825425
vt 0.541667 0.551628
vt 0.625000 0.825425
vt 0.700425 0.750000
vt 0.541667 0.563843
vt 0.700169 0.674831
vt 0.541667 0.583333
vt 0.699761 0.554891
vt 0.541667 0.157730
vt 0.687074 0.500000
vt 0.625000 0.437926
vt 0.499717 0.198356
vt 0.562075 0.812925
vt 0.687925 0.750000
vt 0.541667 0.198356
vt 0.625000 0.812925
vt 0.541667 0.188165
vt 0.687711 0.687289
vt 0.625000 0.425426
vt 0.541667 0.592253
vt 0.699574 0.500000
vt 0.282741 0.592259
vt 0.375000 0.430039
vt 0.323369 0.551631
vt 0.375000 0.822843
s 0
f 2/4/1 3/8/1 1/1/1
f 4/9/2 7/13/2 3/8/2
f 8/14/3 5/11/3 7/13/3
f 6/12/4 1/2/4 5/11/4
f 7/13/5 1/3/5 3/7/5
f 4/10/6 6/12/6 8/14/6
f 2/4/1 4/9/1 3/8/1
f 4/9/2 8/14/2 7/13/2
f 8/14/3 6/12/3 5/11/3
f 6/12/4 2/5/4 1/2/4
f 7/13/5 5/11/5 1/3/5
f 4/10/6 2/6/6 6/12/6
f 10/18/2 11/22/2 9/15/2
f 12/23/3 15/27/3 11/22/3
f 16/28/4 13/25/4 15/27/4
f 14/26/1 9/16/1 13/25/1
f 15/27/5 9/17/5 11/21/5
f 12/24/6 14/26/6 16/28/6
f 10/18/2 12/23/2 11/22/2
f 12/23/3 16/28/3 15/27/3
f 16/28/4 14/26/4 13/25/4
f 14/26/1 10/19/1 9/16/1
f 15/27/5 13/25/5 9/17/5
f 12/24/6 10/20/6 14/26/6
f 28/51/1 31/59/1 18/34/1
f 20/38/2 23/41/2 19/36/2
f 21/39/3 33/63/3 32/61/3
f 23/41/3 50/101/3 51/104/3
f 22/40/4 17/29/4 21/39/4
f 25/43/5 42/83/5 17/30/5
f 19/35/5 23/41/5 41/81/5 30/56/5
f 20/37/6 22/40/6 24/42/6
f 20/38/1 56/116/1 54/111/1
f 20/38/2 24/42/2 23/41/2
f 22/40/3 39/76/3 38/73/3
f 22/40/4 18/32/4 17/29/4
f 36/69/5 41/81/5 23/41/5
f 21/39/5 17/30/5 42/83/5 33/63/5
f 20/37/6 18/33/6 22/40/6
f 29/55/4 30/57/4 41/82/4
f 32/62/2 33/64/2 42/84/2
f 31/60/5 38/74/5 39/77/5
f 29/55/4 35/68/4 34/66/4
f 37/72/2 27/49/2 40/78/2
f 27/50/5 39/77/5 40/79/5
f 50/102/4 57/120/4 51/103/4
f 44/89/2 48/97/2 43/87/2
f 46/93/6 47/95/6 57/119/6
f 59/125/5 52/106/5 53/110/5
f 52/108/4 58/122/4 50/102/4
f 60/127/2 54/113/2 62/130/2
f 45/91/6 49/99/6 47/95/6
f 54/112/5 61/129/5 62/131/5
f 48/96/3 34/65/3 49/98/3
f 34/65/3 35/67/3 49/98/3
f 35/67/3 36/69/3 49/98/3
f 36/69/3 23/41/3 47/94/3
f 47/94/3 23/41/3 51/104/3
f 24/42/3 53/109/3 52/107/3
f 24/42/3 52/107/3 50/101/3
f 47/94/3 49/98/3 36/69/3
f 23/41/3 24/42/3 50/101/3
f 61/128/3 53/109/3 24/42/3
f 22/40/3 21/39/3 37/71/3
f 21/39/3 32/61/3 37/71/3
f 61/128/3 24/42/3 62/132/3
f 24/42/3 22/40/3 62/132/3
f 22/40/3 37/71/3 40/80/3
f 22/40/3 40/80/3 39/76/3
f 60/126/3 62/132/3 38/73/3
f 62/132/3 22/40/3 38/73/3
f 34/65/3 48/96/3 38/73/3
f 48/96/3 60/126/3 38/73/3
f 46/92/1 19/36/1 45/90/1
f 19/36/1 30/58/1 45/90/1
f 30/58/1 29/54/1 43/85/1
f 45/90/1 30/58/1 43/85/1
f 25/44/1 17/31/1 26/46/1
f 17/31/1 18/34/1 26/46/1
f 44/88/1 43/85/1 29/54/1
f 44/88/1 29/54/1 28/51/1
f 27/48/1 26/46/1 18/34/1
f 31/59/1 27/48/1 18/34/1
f 18/34/1 44/88/1 28/51/1
f 19/36/1 46/92/1 57/118/1
f 19/36/1 57/118/1 58/121/1
f 55/114/1 44/88/1 18/34/1
f 54/111/1 55/114/1 18/34/1
f 20/38/1 19/36/1 58/121/1
f 20/38/1 58/121/1 59/123/1
f 54/111/1 18/34/1 20/38/1
f 20/38/1 59/123/1 56/116/1
f 45/91/6 43/86/6 49/99/6
f 45/91/6 47/95/6 46/93/6
f 47/95/6 51/105/6 57/119/6
f 50/102/4 58/122/4 57/120/4
f 52/108/4 59/124/4 58/122/4
f 42/84/2 25/45/2 26/47/2
f 26/47/2 37/72/2 42/84/2
f 37/72/2 32/62/2 42/84/2
f 37/72/2 26/47/2 27/49/2
f 31/60/5 28/52/5 38/74/5
f 27/50/5 31/60/5 39/77/5
f 41/82/4 36/70/4 35/68/4
f 35/68/4 29/55/4 41/82/4
f 34/66/4 38/75/4 28/53/4
f 28/53/4 29/55/4 34/66/4
f 54/112/5 56/117/5 61/129/5
f 53/110/5 61/129/5 56/117/5
f 56/117/5 59/125/5 53/110/5
f 60/127/2 55/115/2 54/113/2
f 44/89/2 55/115/2 48/97/2
f 55/115/2 60/127/2 48/97/2
f 48/97/2 49/100/2 43/87/2
f 63/135/2 75/157/2 72/150/2
f 73/152/2 65/140/2 74/154/2
f 66/142/3 69/145/3 65/140/3
f 67/143/4 77/161/4 78/163/4
f 70/146/4 82/172/4 81/169/4
f 68/144/1 63/133/1 67/143/1
f 71/147/5 89/189/5 63/134/5
f 65/139/5 69/145/5 90/191/5 74/155/5
f 66/141/6 68/144/6 70/146/6
f 86/182/2 87/184/2 66/142/2
f 66/142/3 70/146/3 69/145/3
f 88/187/4 68/144/4 78/163/4
f 68/144/1 64/136/1 63/133/1
f 80/167/5 90/191/5 69/145/5
f 67/143/5 63/134/5 89/189/5 76/160/5
f 66/141/6 64/137/6 68/144/6
f 77/162/7 76/159/7 89/190/7
f 73/153/8 74/156/8 90/192/8
f 87/185/5 82/173/5 83/175/5
f 84/178/7 88/186/7 78/164/7
f 81/170/8 85/180/8 79/166/8
f 81/171/5 87/185/5 86/181/5
f 66/142/2 65/140/2 85/179/2
f 65/140/2 73/152/2 85/179/2
f 84/176/2 75/157/2 64/138/2
f 87/184/2 84/176/2 66/142/2
f 84/176/2 64/138/2 66/142/2
f 66/142/2 85/179/2 86/182/2
f 72/150/2 71/148/2 63/135/2
f 63/135/2 64/138/2 75/157/2
f 88/187/4 83/174/4 70/146/4
f 68/144/4 67/143/4 78/163/4
f 88/187/4 70/146/4 68/144/4
f 67/143/4 76/160/4 77/161/4
f 79/165/4 80/167/4 69/145/4
f 70/146/4 83/174/4 82/172/4
f 81/169/4 79/165/4 70/146/4
f 79/165/4 69/145/4 70/146/4
f 90/192/8 80/168/8 79/166/8
f 79/166/8 85/180/8 90/192/8
f 85/180/8 73/153/8 90/192/8
f 81/170/8 86/183/8 85/180/8
f 83/175/5 88/188/5 84/177/5
f 84/177/5 87/185/5 83/175/5
f 81/171/5 82/173/5 87/185/5
f 78/164/7 77/162/7 75/158/7
f 77/162/7 72/151/7 75/158/7
f 75/158/7 84/178/7 78/164/7
f 89/190/7 71/149/7 72/151/7
f 72/151/7 77/162/7 89/190/7
