# Blender v2.92.0 OBJ File: 'padlo.blend'
# www.blender.org
mtllib padlo.mtl
o Cube.001_Cube.005
v 40.954006 5.844155 -11.448737
v -61.429356 6.139716 -11.271897
v 40.944355 5.836766 -11.902898
v -61.439011 6.132327 -11.726058
v 40.924694 -4.409739 -11.281300
v -61.458668 -4.114178 -11.104460
v 40.915043 -4.417127 -11.735460
v -61.468323 -4.121566 -11.558620
vt 0.625000 0.000000
vt 0.375000 0.250000
vt 0.375000 0.000000
vt 0.625000 0.250000
vt 0.375000 0.500000
vt 0.375000 0.250000
vt 0.375000 0.500000
vt 0.625000 0.750000
vt 0.375000 0.750000
vt 0.625000 0.750000
vt 0.375000 1.000000
vt 0.375000 0.750000
vt 0.375000 0.500000
vt 0.125000 0.750000
vt 0.125000 0.500000
vt 0.875000 0.500000
vt 0.625000 0.750000
vt 0.625000 0.500000
vt 0.625000 0.250000
vt 0.625000 0.500000
vt 0.625000 0.500000
vt 0.625000 1.000000
vt 0.375000 0.750000
vt 0.875000 0.750000
vn -0.9998 0.0032 0.0212
vn 0.0018 0.0163 0.9999
vn -0.0029 -0.9999 0.0163
vn -0.0018 -0.0163 -0.9999
vn 0.9998 -0.0032 -0.0212
vn 0.0029 0.9999 -0.0163
usemtl (null)
s off
f 2/1/1 8/2/1 6/3/1
f 5/4/2 2/5/2 6/6/2
f 8/7/3 5/8/3 6/9/3
f 3/10/4 8/11/4 4/12/4
f 5/13/5 3/14/5 1/15/5
f 1/16/6 4/17/6 2/18/6
f 2/1/1 4/19/1 8/2/1
f 5/4/2 1/20/2 2/5/2
f 8/7/3 7/21/3 5/8/3
f 3/10/4 7/22/4 8/11/4
f 5/13/5 7/23/5 3/14/5
f 1/16/6 3/24/6 4/17/6
