# Blender v2.92.0 OBJ File: 'padlo.blend'
# www.blender.org
mtllib teto.mtl
o Cube.001
v 40.817867 5.891297 -1.379140
v -61.565495 6.186449 -1.201626
v 40.808212 5.884960 -1.833317
v -61.575150 6.180111 -1.655802
v 40.788555 -4.362956 -1.235431
v -61.594807 -4.067805 -1.057917
v 40.778900 -4.369294 -1.689607
v -61.604462 -4.074142 -1.512093
vt 0.625000 0.000000
vt 0.375000 0.250000
vt 0.375000 0.000000
vt 0.625000 0.250000
vt 0.375000 0.500000
vt 0.375000 0.250000
vt 0.375000 0.500000
vt 0.625000 0.750000
vt 0.375000 0.750000
vt 0.625000 0.750000
vt 0.375000 1.000000
vt 0.375000 0.750000
vt 0.375000 0.500000
vt 0.125000 0.750000
vt 0.125000 0.500000
vt 0.875000 0.500000
vt 0.625000 0.750000
vt 0.625000 0.500000
vt 0.625000 0.250000
vt 0.625000 0.500000
vt 0.625000 0.500000
vt 0.625000 1.000000
vt 0.375000 0.750000
vt 0.875000 0.750000
vn -0.9998 0.0032 0.0212
vn 0.0018 0.0140 0.9999
vn -0.0029 -0.9999 0.0140
vn -0.0018 -0.0140 -0.9999
vn 0.9998 -0.0032 -0.0212
vn 0.0029 0.9999 -0.0140
usemtl (null)
s off
f 2/1/1 8/2/1 6/3/1
f 5/4/2 2/5/2 6/6/2
f 8/7/3 5/8/3 6/9/3
f 3/10/4 8/11/4 4/12/4
f 5/13/5 3/14/5 1/15/5
f 1/16/6 4/17/6 2/18/6
f 2/1/1 4/19/1 8/2/1
f 5/4/2 1/20/2 2/5/2
f 8/7/3 7/21/3 5/8/3
f 3/10/4 7/22/4 8/11/4
f 5/13/5 7/23/5 3/14/5
f 1/16/6 3/24/6 4/17/6
